<svg xmlns="http://www.w3.org/2000/svg" aria-hidden="true" style="position:absolute;width:0;height:0;overflow:hidden">
    <defs>
        <symbol id="icon-clouds" viewBox="0 0 32 32">
            <path d="M30.521 15.464c.914 1.182 1.479 2.644 1.479 4.25 0 3.859-3.141 7-7 7a6.93 6.93 0 0 1-2.482-.458A9.9 9.9 0 0 1 16 28.714a9.906 9.906 0 0 1-6.518-2.458A6.926 6.926 0 0 1 7 26.714c-3.859 0-7-3.141-7-7s3.141-7 7-7c.332 0 .66.023.987.07.033-.046.073-.086.107-.13a5.726 5.726 0 0 1-.094-.94 5.578 5.578 0 0 1 6.019-5.554 7.645 7.645 0 0 1 5.98-2.874 7.64 7.64 0 0 1 5.98 2.874 5.578 5.578 0 0 1 6.02 5.554c0 1.448-.568 2.756-1.479 3.75z"/>
        </symbol>
        <symbol id="icon-rain" viewBox="0 0 32 32">
            <path d="M25 4c-.332 0-.66.023-.987.07C22.146 1.526 19.199 0 16 0S9.855 1.526 7.987 4.07A6.918 6.918 0 0 0 7 4c-3.859 0-7 3.141-7 7s3.141 7 7 7c.856 0 1.693-.156 2.482-.458A9.906 9.906 0 0 0 16 20a9.9 9.9 0 0 0 6.518-2.458A6.926 6.926 0 0 0 25 18c3.859 0 7-3.141 7-7s-3.141-7-7-7zm0 12a4.926 4.926 0 0 1-1.766-.325l-1.125-.432-.906.792c-1.453 1.268-3.301 1.966-5.203 1.966s-3.75-.698-5.203-1.966l-.906-.792-1.125.432A4.919 4.919 0 0 1 7 16.001c-2.758 0-5-2.244-5-5a5.006 5.006 0 0 1 5.703-4.95l1.185.172.71-.966c1.52-2.069 3.853-3.255 6.402-3.255 2.551 0 4.883 1.185 6.401 3.254l.711.967 1.187-.172A5.006 5.006 0 0 1 30 11.001c0 2.756-2.242 5-5 5zM6 20c-1.106 0-2 .895-2 2s.894 2 2 2 2-.895 2-2-.894-2-2-2zm10 2a2 2 0 1 0-.001 3.999A2 2 0 0 0 16 22zm10-2a2 2 0 1 0-.001 3.999A2 2 0 0 0 26 20zm-4 8a2 2 0 1 0-.001 3.999A2 2 0 0 0 22 28zm-12 0a2 2 0 1 0-.001 3.999A2 2 0 0 0 10 28z"/>
        </symbol>
        <symbol id="icon-snowy" viewBox="0 0 32 32">
            <path d="m20.378 27.73-1.125-.648c.034-.195.06-.394.06-.602s-.026-.406-.063-.602l1.128-.65c.526-.307.706-.983.404-1.506a1.102 1.102 0 0 0-1.508-.406l-1.137.656a3.325 3.325 0 0 0-1.031-.6v-1.306a1.105 1.105 0 0 0-2.209 0v1.305a3.301 3.301 0 0 0-1.033.602l-1.134-.656a1.104 1.104 0 1 0-1.104 1.913l1.122.648c-.037.197-.06.396-.06.603s.023.406.06.602l-1.122.648a1.103 1.103 0 1 0 1.102 1.914l1.135-.652c.305.258.65.461 1.034.598V30.9c0 .609.495 1.102 1.104 1.102s1.105-.492 1.105-1.102v-1.309c.383-.137.73-.34 1.033-.602l1.135.656a1.104 1.104 0 1 0 1.104-1.914zM16 27.586a1.105 1.105 0 1 1 0-2.206 1.105 1.105 0 0 1 0 2.206zm13.635-2.82-.755-.201a1.892 1.892 0 0 0-.181-.686l.548-.548a.655.655 0 1 0-.927-.928l-.549.547a1.985 1.985 0 0 0-.685-.18l-.201-.754a.658.658 0 0 0-.805-.465.66.66 0 0 0-.464.805l.201.744a2.1 2.1 0 0 0-.281.229 2.272 2.272 0 0 0-.227.279l-.744-.201a.66.66 0 0 0-.806.465.66.66 0 0 0 .464.805l.75.202c.021.236.081.466.186.685l-.551.551a.654.654 0 0 0 .003.926.654.654 0 0 0 .924.003l.552-.552c.216.107.448.167.688.185l.198.751a.658.658 0 1 0 1.271-.342l-.201-.744c.094-.066.19-.141.279-.227.086-.087.159-.184.227-.28l.745.201a.656.656 0 0 0 .341-1.269zm-2.24.418a.657.657 0 0 1-.93-.928.66.66 0 0 1 .93 0 .66.66 0 0 1 0 .928zM7.434 21.406l-.742.199a2.425 2.425 0 0 0-.228-.277 2.06 2.06 0 0 0-.28-.227l.199-.746a.656.656 0 1 0-1.266-.339l-.203.754c-.238.02-.466.078-.684.181l-.551-.548a.657.657 0 0 0-.927.928l.548.548a1.95 1.95 0 0 0-.181.686l-.753.201a.657.657 0 1 0 .34 1.269l.742-.202a1.786 1.786 0 0 0 .508.508l-.199.744a.654.654 0 1 0 1.265.342l.203-.75a1.96 1.96 0 0 0 .688-.184l.549.549a.654.654 0 0 0 .927-.003.654.654 0 0 0 0-.926l-.551-.551c.106-.216.168-.449.184-.688l.754-.199a.658.658 0 0 0-.344-1.27zm-1.899 1.779a.66.66 0 0 1-.93 0 .66.66 0 0 1 0-.927.656.656 0 1 1 .93.927zM32 11c0-3.859-3.141-7-7-7-.332 0-.66.023-.987.07C22.146 1.526 19.199 0 16 0S9.855 1.526 7.987 4.07A6.918 6.918 0 0 0 7 4c-3.859 0-7 3.141-7 7s3.141 7 7 7c.856 0 1.693-.156 2.482-.458A9.906 9.906 0 0 0 16 20a9.9 9.9 0 0 0 6.518-2.458A6.926 6.926 0 0 0 25 18c3.859 0 7-3.141 7-7zm-9.871 4.083C20.662 16.851 18.477 18 16 18s-4.662-1.148-6.129-2.917A4.968 4.968 0 0 1 7 16c-2.762 0-5-2.238-5-5s2.238-5 5-5c.676 0 1.316.138 1.902.38C10.229 3.792 12.893 2 16 2s5.771 1.792 7.096 4.38A4.983 4.983 0 0 1 25 6c2.762 0 5 2.238 5 5s-2.238 5-5 5a4.97 4.97 0 0 1-2.871-.917z"/>
        </symbol>
        <symbol id="icon-humidity" viewBox="0 0 32 32">
            <path d="M26.065 10.38a8.039 8.039 0 0 0-5.733-2.423c-2.16 0-4.23.889-5.729 2.423a6.24 6.24 0 0 0-5.939 6.224 6.236 6.236 0 0 0 7.309 6.135 7.97 7.97 0 0 0 4.358 1.303 7.973 7.973 0 0 0 4.361-1.303A6.235 6.235 0 0 0 32 16.604a6.238 6.238 0 0 0-5.935-6.224zm-.292 10.453c-.52 0-1.023-.094-1.5-.276a5.99 5.99 0 0 1-3.941 1.486 5.985 5.985 0 0 1-3.937-1.486 4.202 4.202 0 0 1-1.5.276 4.235 4.235 0 0 1-4.23-4.229 4.235 4.235 0 0 1 4.825-4.187 6 6 0 0 1 9.686 0 4.233 4.233 0 0 1 4.825 4.187 4.233 4.233 0 0 1-4.227 4.229zM9 22H1a1 1 0 0 0 0 2h8a1 1 0 0 0 0-2zm-8-2h4a1 1 0 0 0 0-2H1a1 1 0 0 0 0 2zm2-4h4a1 1 0 0 0 0-2H3a1 1 0 0 0 0 2z"/>
        </symbol>
        <symbol id="icon-partly-cloudy" viewBox="0 0 32 32">
            <path d="M13 4a1 1 0 0 0 1-1V1a1 1 0 0 0-2 0v2a1 1 0 0 0 1 1zm7.777 2.635 1.414-1.414a.999.999 0 1 0-1.414-1.414l-1.414 1.414a.999.999 0 1 0 1.414 1.414zM1 14h2a1 1 0 0 0 0-2H1a1 1 0 0 0 0 2zm21-1a1 1 0 0 0 1 1h2a1 1 0 0 0 0-2h-2a1 1 0 0 0-1 1zM5.221 6.635a.999.999 0 1 0 1.414-1.414L5.221 3.807a.999.999 0 1 0-1.414 1.414l1.414 1.414zM25 16c-.332 0-.66.023-.987.07a9.95 9.95 0 0 0-4.029-3.219C19.903 9.062 16.808 5.999 13 5.999c-3.859 0-7 3.141-7 7 0 1.09.271 2.109.719 3.027C2.992 16.178 0 19.237 0 22.999c0 3.859 3.141 7 7 7 .856 0 1.693-.156 2.482-.458A9.906 9.906 0 0 0 16 31.999a9.9 9.9 0 0 0 6.518-2.458 6.926 6.926 0 0 0 2.482.458c3.859 0 7-3.141 7-7s-3.141-7-7-7zM13 8c2.488 0 4.535 1.823 4.919 4.203A9.786 9.786 0 0 0 16 12a9.898 9.898 0 0 0-7.398 3.328A4.937 4.937 0 0 1 8 13a5 5 0 0 1 5-5zm12 20a4.97 4.97 0 0 1-2.871-.917C20.662 28.851 18.477 30 16 30s-4.662-1.148-6.129-2.917A4.968 4.968 0 0 1 7 28c-2.762 0-5-2.238-5-5s2.238-5 5-5c.484 0 .941.091 1.383.221.176.049.354.089.52.158a8.054 8.054 0 0 1 .999-1.484C11.363 15.137 13.536 14 16.001 14c.633 0 1.24.091 1.828.232.66.156 1.284.393 1.865.706a8.074 8.074 0 0 1 3.404 3.441A5 5 0 0 1 30.002 23a5 5 0 0 1-5 5z"/>
        </symbol>
        <symbol id="icon-windy" viewBox="0 0 32 32">
            <path d="M26.938 12c-1.656 0-3 1.344-3 3 0 .353.073.685.184 1H4.938a1 1 0 0 0 0 2h22a3.001 3.001 0 0 0 0-6zm-22 2h12a3.001 3.001 0 0 0 0-6c-1.656 0-3 1.344-3 3 0 .353.073.685.184 1H4.938a1 1 0 0 0 0 2zm16 6c-.059 0-.115.013-.174.018-.039-.003-.072-.018-.111-.018H5.225c-.711 0-1.287.448-1.287 1s.576 1 1.287 1h12.897a2.996 2.996 0 0 0-.184 1 3.001 3.001 0 0 0 6 0c0-1.656-1.344-3-3-3z"/>
        </symbol>
        <symbol id="icon-clear" viewBox="0 0 32 32">
            <path d="M16 9c-3.859 0-7 3.141-7 7s3.141 7 7 7 7-3.141 7-7-3.141-7-7-7zm0 12c-2.762 0-5-2.238-5-5s2.238-5 5-5 5 2.238 5 5-2.238 5-5 5zm0-14a1 1 0 0 0 1-1V4a1 1 0 0 0-2 0v2a1 1 0 0 0 1 1zm0 18a1 1 0 0 0-1 1v2a1 1 0 0 0 2 0v-2a1 1 0 0 0-1-1zm7.777-15.365 1.414-1.414a.999.999 0 1 0-1.414-1.414l-1.414 1.414a.999.999 0 1 0 1.414 1.414zM8.223 22.365l-1.414 1.414a.999.999 0 1 0 1.414 1.414l1.414-1.414a.999.999 0 1 0-1.414-1.414zM7 16a1 1 0 0 0-1-1H4a1 1 0 0 0 0 2h2a1 1 0 0 0 1-1zm21-1h-2a1 1 0 0 0 0 2h2a1 1 0 0 0 0-2zM8.221 9.635a.999.999 0 1 0 1.414-1.414L8.221 6.807a.999.999 0 1 0-1.414 1.414l1.414 1.414zm15.558 12.728a.999.999 0 1 0-1.414 1.414l1.414 1.414a.999.999 0 1 0 1.414-1.414l-1.414-1.414z"/>
        </symbol>
        <symbol id="icon-location" viewBox="0 0 32 32">
            <path d="M16 0C10.477 0 6 4.477 6 10c0 10 10 22 10 22s10-12 10-22c0-5.523-4.477-10-10-10zm0 16a6 6 0 1 1 0-12 6 6 0 0 1 0 12z"/>
        </symbol>
        <symbol id="icon-search" viewBox="0 0 32 32">
            <path d="m31.008 27.231-7.58-6.447c-.784-.705-1.622-1.029-2.299-.998a11.954 11.954 0 0 0 2.87-7.787c0-6.627-5.373-12-12-12s-12 5.373-12 12 5.373 12 12 12c2.972 0 5.691-1.081 7.787-2.87-.031.677.293 1.515.998 2.299l6.447 7.58c1.104 1.226 2.907 1.33 4.007.23s.997-2.903-.23-4.007zM12 20a8 8 0 1 1 0-16 8 8 0 0 1 0 16z"/>
        </symbol>
    </defs>
</svg>